# xmcd
#
# Track frame offsets:
# 150
# 22350
# 31285
# 44186
# 55199
# 72748
# 89845
# 104545
# 118432
# 136637
# 149761
# 165286
# 182895
# 197143
# 208666
# 226092
# 239400
# 253801
# 264450
# 275206
# 286221
# 297548
# 310333
# 323824
#
# Disc length: 4585 seconds
#
# Revision: 0
# Processed by: cddbd v1.5.2PL0 Copyright (c) Steve Scherf et al.
# Submitted via: Axialis_AX_CDPlayer 2.6
#
DISCID=9311e718
DTITLE=Tony Joe White - Swamp Music - The Complete Monument Recordings (Disc
DTITLE=\n1 of 4)
DYEAR=1900
DGENRE=
TTITLE0=Willie And Laura Mae Jones
TTITLE1=Soul Francisco
TTITLE2=Aspen, Colorado
TTITLE3=Whompt Out On You
TTITLE4=Don't Steal My Love
TTITLE5=Polk Salad Annie
TTITLE6=Who's Making Love
TTITLE7=Scratch My Back
TTITLE8=Little Green Apples
TTITLE9=Wichita Lineman
TTITLE10=Look Of Love
TTITLE11=Willie And Laura Mae Jones (Alternate Version)
TTITLE12=I Protest
TTITLE13=Man Can Only Stand Just So Much Pai
TTITLE14=Toil and Trouble (Early Version)
TTITLE15=Georgia Pines
TTITLE16=It's Not What You Got
TTITLE17=Prison Song
TTITLE18=Hung Up On You
TTITLE19=Ten More Miles To Louisiana
TTITLE20=Let The Party Roll On
TTITLE21=Watching The Trains Go By (Alternate Version)
TTITLE22=Georgia Pines (Alternate Version)
TTITLE23=Baby Please Don't Go
EXTD=www.tonyjoewhite.com
EXTT0=
EXTT1=
EXTT2=
EXTT3=
EXTT4=
EXTT5=
EXTT6=
EXTT7=
EXTT8=
EXTT9=
EXTT10=
EXTT11=
EXTT12=
EXTT13=
EXTT14=
EXTT15=
EXTT16=
EXTT17=
EXTT18=
EXTT19=
EXTT20=
EXTT21=
EXTT22=
EXTT23=
PLAYORDER=
